<svg xmlns="http://www.w3.org/2000/svg" viewBox="0 0 197.95 27"><defs><style>.cls-1{fill:#2b5780;}.cls-2{fill:#fff;}</style></defs><title>Asset 8</title><g id="Layer_2" data-name="Layer 2"><g id="Layer_1-2" data-name="Layer 1"><path class="cls-1" d="M38.77,21.76V4.39h5.32a8.67,8.67,0,0,1,6.39,2.4,8.47,8.47,0,0,1,2.41,6.28,8.46,8.46,0,0,1-2.41,6.3,8.7,8.7,0,0,1-6.39,2.39ZM41,6.52v13.1h3.09a6.44,6.44,0,0,0,4.77-1.73,6.47,6.47,0,0,0,1.75-4.82,6.47,6.47,0,0,0-1.75-4.8,6.45,6.45,0,0,0-4.77-1.75Z"/><path class="cls-1" d="M60.12,22.15a5.7,5.7,0,0,1-4.32-1.8,6.33,6.33,0,0,1-1.69-4.53,6.46,6.46,0,0,1,1.65-4.53,5.93,5.93,0,0,1,8.43-.1A6.86,6.86,0,0,1,65.75,16l0,.24H56.39A3.87,3.87,0,0,0,57.55,19a3.76,3.76,0,0,0,6-1.07l2,1a6.05,6.05,0,0,1-2.22,2.35A6.22,6.22,0,0,1,60.12,22.15Zm-3.56-7.77h6.81a3,3,0,0,0-1-2.05,3.54,3.54,0,0,0-2.44-.81,3.21,3.21,0,0,0-2.17.78A3.67,3.67,0,0,0,56.56,14.38Z"/><path class="cls-1" d="M73.34,22.15A5.87,5.87,0,0,1,69,20.35a6.38,6.38,0,0,1-1.72-4.53A6.29,6.29,0,0,1,69,11.28a5.87,5.87,0,0,1,4.39-1.8,5.45,5.45,0,0,1,5.22,3.42l-2,.85a3.36,3.36,0,0,0-3.32-2.23,3.45,3.45,0,0,0-2.65,1.24,4.48,4.48,0,0,0-1.09,3.06,4.47,4.47,0,0,0,1.09,3.05,3.64,3.64,0,0,0,6.09-1l2,.85a5.34,5.34,0,0,1-2,2.51A5.85,5.85,0,0,1,73.34,22.15Z"/><path class="cls-1" d="M83.46,5.77A1.52,1.52,0,0,1,83,6.89a1.58,1.58,0,0,1-2.23,0,1.52,1.52,0,0,1-.46-1.12,1.48,1.48,0,0,1,.46-1.11,1.56,1.56,0,0,1,2.23,0A1.48,1.48,0,0,1,83.46,5.77ZM83,9.87V21.76H80.77V9.87Z"/><path class="cls-1" d="M88.53,21.76H86.3V4.39h2.23l6,10.58h.1l6-10.58h2.23V21.76h-2.23V11.45l.1-2.91h-.1l-5.43,9.53H94L88.53,8.54h-.1l.1,2.91Z"/><path class="cls-1" d="M116.19,21.76h-9.75V4.39h2.23V19.62h7.52Z"/><path class="cls-1" d="M133.85,17.11a4.56,4.56,0,0,1-1.67,3.68,6.43,6.43,0,0,1-4.13,1.36,6.11,6.11,0,0,1-3.81-1.26A6.44,6.44,0,0,1,122,17.44l2.14-.87a5.21,5.21,0,0,0,.61,1.4,4.25,4.25,0,0,0,2.06,1.79,3.5,3.5,0,0,0,1.33.25,3.82,3.82,0,0,0,2.5-.79,2.66,2.66,0,0,0,.17-4A7.65,7.65,0,0,0,128,13.8a26.6,26.6,0,0,1-2.6-1,4.46,4.46,0,0,1-2.77-4.15,4.22,4.22,0,0,1,1.53-3.27A5.58,5.58,0,0,1,127.93,4a5.86,5.86,0,0,1,3.45,1,4.8,4.8,0,0,1,1.94,2.5l-2.09.87a3.07,3.07,0,0,0-1.15-1.61,3.76,3.76,0,0,0-4.31.08,2.11,2.11,0,0,0-.9,1.76,2.05,2.05,0,0,0,.71,1.55A12.4,12.4,0,0,0,129,11.72a8.56,8.56,0,0,1,3.77,2.2A4.65,4.65,0,0,1,133.85,17.11Z"/><path class="cls-1" d="M146.3,9.87,138.85,27h-2.31l2.77-6-4.9-11.14h2.43l3.54,8.54h.05l3.44-8.54Z"/><path class="cls-1" d="M156.61,18.46a3.2,3.2,0,0,1-1.36,2.62,5.88,5.88,0,0,1-6.57.13,5.13,5.13,0,0,1-2-2.46l2-.85A3.72,3.72,0,0,0,150,19.56a3.08,3.08,0,0,0,1.83.6,3.27,3.27,0,0,0,1.78-.46,1.31,1.31,0,0,0,.72-1.09c0-.76-.58-1.32-1.75-1.68l-2-.51q-3.47-.87-3.47-3.35a3.06,3.06,0,0,1,1.33-2.6,5.49,5.49,0,0,1,3.38-1,5.43,5.43,0,0,1,2.85.76,4.09,4.09,0,0,1,1.79,2l-2,.82a2.51,2.51,0,0,0-1.11-1.17,3.39,3.39,0,0,0-1.71-.43,2.87,2.87,0,0,0-1.56.44,1.25,1.25,0,0,0-.7,1.07c0,.68.64,1.16,1.92,1.45l1.8.46C155.43,15.48,156.61,16.66,156.61,18.46Z"/><path class="cls-1" d="M163.14,22a3.42,3.42,0,0,1-2.42-.89,3.32,3.32,0,0,1-1-2.5V11.91h-2.09v-2h2.09V6.23H162V9.87h2.91v2H162v5.92a2.15,2.15,0,0,0,.46,1.61,1.49,1.49,0,0,0,1,.43,2.33,2.33,0,0,0,.53-.06,3.24,3.24,0,0,0,.47-.16l.7,2A6,6,0,0,1,163.14,22Z"/><path class="cls-1" d="M172.23,22.15a5.7,5.7,0,0,1-4.32-1.8,6.33,6.33,0,0,1-1.69-4.53,6.46,6.46,0,0,1,1.65-4.53,5.93,5.93,0,0,1,8.43-.1,6.86,6.86,0,0,1,1.56,4.8l0,.24H168.5A3.87,3.87,0,0,0,169.66,19a3.76,3.76,0,0,0,6-1.07l2,1a6.05,6.05,0,0,1-2.22,2.35A6.22,6.22,0,0,1,172.23,22.15Zm-3.56-7.77h6.81a3,3,0,0,0-1-2.05,3.54,3.54,0,0,0-2.44-.81,3.21,3.21,0,0,0-2.17.78A3.67,3.67,0,0,0,168.67,14.38Z"/><path class="cls-1" d="M182.13,21.76H179.9V9.87H182v1.65h.1a3.89,3.89,0,0,1,1.57-1.45,4.29,4.29,0,0,1,2.1-.59,4.36,4.36,0,0,1,2.3.61,3.6,3.6,0,0,1,1.46,1.67,4.63,4.63,0,0,1,4.1-2.28,4,4,0,0,1,3.17,1.26,5.25,5.25,0,0,1,1.12,3.6v7.42h-2.23V14.68a3.78,3.78,0,0,0-.61-2.42,2.5,2.5,0,0,0-2-.74,2.68,2.68,0,0,0-2.16,1.09,4,4,0,0,0-.87,2.57v6.58h-2.23V14.68a3.78,3.78,0,0,0-.61-2.42,2.5,2.5,0,0,0-2-.74A2.65,2.65,0,0,0,183,12.61a4,4,0,0,0-.88,2.57Z"/><circle class="cls-1" cx="13.5" cy="13.5" r="13.5"/><circle class="cls-2" cx="13.5" cy="13.5" r="10.41"/><circle class="cls-1" cx="13.5" cy="13.5" r="7.4"/><circle class="cls-2" cx="13.5" cy="13.5" r="2.92"/></g></g></svg>